<mxfile host="Electron" modified="2024-10-17T17:39:23.790Z" agent="Mozilla/5.0 (Windows NT 10.0; Win64; x64) AppleWebKit/537.36 (KHTML, like Gecko) draw.io/24.1.0 Chrome/120.0.6099.109 Electron/28.1.0 Safari/537.36" etag="_VGUEqhnObOmjCuGFopE" version="24.1.0" type="device">
  <diagram name="Page-1" id="OTb1ZRyh3Qiyg0LH3wsI">
    <mxGraphModel dx="1035" dy="1825" grid="1" gridSize="10" guides="1" tooltips="1" connect="1" arrows="1" fold="1" page="1" pageScale="1" pageWidth="850" pageHeight="1100" math="0" shadow="0">
      <root>
        <mxCell id="0" />
        <mxCell id="1" parent="0" />
        <mxCell id="wVJ0UC80bQIWRE79aEJI-3" value="veterinarian Doctor" style="shape=umlActor;verticalLabelPosition=bottom;verticalAlign=top;html=1;outlineConnect=0;" parent="1" vertex="1">
          <mxGeometry x="780" y="460" width="30" height="60" as="geometry" />
        </mxCell>
        <mxCell id="wVJ0UC80bQIWRE79aEJI-4" value="admin" style="shape=umlActor;verticalLabelPosition=bottom;verticalAlign=top;html=1;outlineConnect=0;" parent="1" vertex="1">
          <mxGeometry x="70" y="130" width="30" height="60" as="geometry" />
        </mxCell>
        <mxCell id="wVJ0UC80bQIWRE79aEJI-13" value="Pet owner" style="shape=umlActor;verticalLabelPosition=bottom;verticalAlign=top;html=1;outlineConnect=0;" parent="1" vertex="1">
          <mxGeometry x="760" y="150" width="30" height="60" as="geometry" />
        </mxCell>
        <mxCell id="wVJ0UC80bQIWRE79aEJI-27" value="&lt;b&gt;&lt;font style=&quot;font-size: 14px;&quot;&gt;USECASE DIAGRAM&lt;/font&gt;&lt;/b&gt;" style="text;html=1;align=center;verticalAlign=middle;resizable=0;points=[];autosize=1;strokeColor=none;fillColor=none;" parent="1" vertex="1">
          <mxGeometry x="330" y="-270" width="160" height="30" as="geometry" />
        </mxCell>
        <mxCell id="8xcBH1uQO-JWMwHh5S23-1" value="FUZZYFI" style="swimlane;whiteSpace=wrap;html=1;" parent="1" vertex="1">
          <mxGeometry x="310" y="-90" width="230" height="1110" as="geometry" />
        </mxCell>
        <mxCell id="h2O9KdNf0a8tzcaaWF35-1" value="Make appointment" style="ellipse;whiteSpace=wrap;html=1;" vertex="1" parent="8xcBH1uQO-JWMwHh5S23-1">
          <mxGeometry x="50" y="560" width="120" height="70" as="geometry" />
        </mxCell>
        <mxCell id="h2O9KdNf0a8tzcaaWF35-2" value="views the appointment" style="ellipse;whiteSpace=wrap;html=1;" vertex="1" parent="8xcBH1uQO-JWMwHh5S23-1">
          <mxGeometry x="55" y="650" width="120" height="60" as="geometry" />
        </mxCell>
        <mxCell id="h2O9KdNf0a8tzcaaWF35-3" value="respond to the emergency comment" style="ellipse;whiteSpace=wrap;html=1;" vertex="1" parent="8xcBH1uQO-JWMwHh5S23-1">
          <mxGeometry x="40" y="390" width="120" height="60" as="geometry" />
        </mxCell>
        <mxCell id="h2O9KdNf0a8tzcaaWF35-4" value="view calender" style="ellipse;whiteSpace=wrap;html=1;" vertex="1" parent="8xcBH1uQO-JWMwHh5S23-1">
          <mxGeometry x="50" y="720" width="120" height="60" as="geometry" />
        </mxCell>
        <mxCell id="wVJ0UC80bQIWRE79aEJI-14" value="delete details" style="ellipse;whiteSpace=wrap;html=1;" parent="8xcBH1uQO-JWMwHh5S23-1" vertex="1">
          <mxGeometry x="40" y="320" width="120" height="60" as="geometry" />
        </mxCell>
        <mxCell id="wVJ0UC80bQIWRE79aEJI-9" value="make emergency&lt;div&gt;comments&lt;/div&gt;" style="ellipse;whiteSpace=wrap;html=1;" parent="8xcBH1uQO-JWMwHh5S23-1" vertex="1">
          <mxGeometry x="40" y="250" width="120" height="60" as="geometry" />
        </mxCell>
        <mxCell id="wVJ0UC80bQIWRE79aEJI-5" value="login" style="ellipse;whiteSpace=wrap;html=1;" parent="8xcBH1uQO-JWMwHh5S23-1" vertex="1">
          <mxGeometry x="50" y="40" width="120" height="50" as="geometry" />
        </mxCell>
        <mxCell id="wVJ0UC80bQIWRE79aEJI-6" value="update appointment" style="ellipse;whiteSpace=wrap;html=1;" parent="8xcBH1uQO-JWMwHh5S23-1" vertex="1">
          <mxGeometry x="50" y="110" width="120" height="60" as="geometry" />
        </mxCell>
        <mxCell id="wVJ0UC80bQIWRE79aEJI-7" value="&amp;nbsp;update&lt;div&gt;calender&lt;div&gt;&lt;br&gt;&lt;/div&gt;&lt;/div&gt;" style="ellipse;whiteSpace=wrap;html=1;" parent="8xcBH1uQO-JWMwHh5S23-1" vertex="1">
          <mxGeometry x="40" y="180" width="120" height="60" as="geometry" />
        </mxCell>
        <mxCell id="wVJ0UC80bQIWRE79aEJI-8" value="view&amp;nbsp;&lt;div&gt;notifications&lt;div&gt;&lt;br&gt;&lt;/div&gt;&lt;/div&gt;" style="ellipse;whiteSpace=wrap;html=1;" parent="8xcBH1uQO-JWMwHh5S23-1" vertex="1">
          <mxGeometry x="50" y="480" width="120" height="60" as="geometry" />
        </mxCell>
        <mxCell id="h2O9KdNf0a8tzcaaWF35-19" value="sends comments to&lt;div&gt;admin&lt;/div&gt;" style="ellipse;whiteSpace=wrap;html=1;" vertex="1" parent="8xcBH1uQO-JWMwHh5S23-1">
          <mxGeometry x="55" y="930" width="120" height="60" as="geometry" />
        </mxCell>
        <mxCell id="h2O9KdNf0a8tzcaaWF35-22" value="accepts appointments" style="ellipse;whiteSpace=wrap;html=1;" vertex="1" parent="8xcBH1uQO-JWMwHh5S23-1">
          <mxGeometry x="50" y="870" width="120" height="60" as="geometry" />
        </mxCell>
        <mxCell id="h2O9KdNf0a8tzcaaWF35-24" value="sets date of appointment" style="ellipse;whiteSpace=wrap;html=1;" vertex="1" parent="8xcBH1uQO-JWMwHh5S23-1">
          <mxGeometry x="55" y="1010" width="120" height="80" as="geometry" />
        </mxCell>
        <mxCell id="h2O9KdNf0a8tzcaaWF35-30" value="update doctors comments in the&amp;nbsp;&lt;div&gt;system&lt;/div&gt;" style="ellipse;whiteSpace=wrap;html=1;" vertex="1" parent="8xcBH1uQO-JWMwHh5S23-1">
          <mxGeometry x="55" y="790" width="120" height="70" as="geometry" />
        </mxCell>
        <mxCell id="h2O9KdNf0a8tzcaaWF35-7" value="" style="endArrow=classic;html=1;rounded=0;exitX=0.5;exitY=0.5;exitDx=0;exitDy=0;exitPerimeter=0;entryX=0;entryY=0.5;entryDx=0;entryDy=0;" edge="1" parent="1" source="wVJ0UC80bQIWRE79aEJI-4" target="wVJ0UC80bQIWRE79aEJI-5">
          <mxGeometry width="50" height="50" relative="1" as="geometry">
            <mxPoint x="440" y="220" as="sourcePoint" />
            <mxPoint x="490" y="170" as="targetPoint" />
          </mxGeometry>
        </mxCell>
        <mxCell id="h2O9KdNf0a8tzcaaWF35-8" value="" style="endArrow=classic;html=1;rounded=0;entryX=0;entryY=0.5;entryDx=0;entryDy=0;" edge="1" parent="1" target="wVJ0UC80bQIWRE79aEJI-6">
          <mxGeometry width="50" height="50" relative="1" as="geometry">
            <mxPoint x="90" y="160" as="sourcePoint" />
            <mxPoint x="490" y="170" as="targetPoint" />
          </mxGeometry>
        </mxCell>
        <mxCell id="h2O9KdNf0a8tzcaaWF35-9" value="" style="endArrow=classic;html=1;rounded=0;entryX=0;entryY=0.5;entryDx=0;entryDy=0;" edge="1" parent="1" target="wVJ0UC80bQIWRE79aEJI-7">
          <mxGeometry width="50" height="50" relative="1" as="geometry">
            <mxPoint x="90" y="160" as="sourcePoint" />
            <mxPoint x="490" y="170" as="targetPoint" />
          </mxGeometry>
        </mxCell>
        <mxCell id="h2O9KdNf0a8tzcaaWF35-10" value="" style="endArrow=classic;html=1;rounded=0;exitX=0.678;exitY=0.669;exitDx=0;exitDy=0;exitPerimeter=0;entryX=0;entryY=0.333;entryDx=0;entryDy=0;entryPerimeter=0;" edge="1" parent="1" source="wVJ0UC80bQIWRE79aEJI-4" target="wVJ0UC80bQIWRE79aEJI-14">
          <mxGeometry width="50" height="50" relative="1" as="geometry">
            <mxPoint x="440" y="220" as="sourcePoint" />
            <mxPoint x="490" y="170" as="targetPoint" />
          </mxGeometry>
        </mxCell>
        <mxCell id="h2O9KdNf0a8tzcaaWF35-12" value="" style="endArrow=classic;html=1;rounded=0;entryX=0;entryY=0.5;entryDx=0;entryDy=0;exitX=1;exitY=1;exitDx=0;exitDy=0;exitPerimeter=0;" edge="1" parent="1" source="wVJ0UC80bQIWRE79aEJI-4" target="h2O9KdNf0a8tzcaaWF35-3">
          <mxGeometry width="50" height="50" relative="1" as="geometry">
            <mxPoint x="80" y="210" as="sourcePoint" />
            <mxPoint x="490" y="290" as="targetPoint" />
          </mxGeometry>
        </mxCell>
        <mxCell id="h2O9KdNf0a8tzcaaWF35-13" value="" style="endArrow=classic;html=1;rounded=0;exitX=0;exitY=0.3333333333333333;exitDx=0;exitDy=0;exitPerimeter=0;entryX=1;entryY=0.5;entryDx=0;entryDy=0;" edge="1" parent="1" source="wVJ0UC80bQIWRE79aEJI-13" target="wVJ0UC80bQIWRE79aEJI-5">
          <mxGeometry width="50" height="50" relative="1" as="geometry">
            <mxPoint x="440" y="390" as="sourcePoint" />
            <mxPoint x="490" y="340" as="targetPoint" />
          </mxGeometry>
        </mxCell>
        <mxCell id="h2O9KdNf0a8tzcaaWF35-14" value="" style="endArrow=classic;html=1;rounded=0;entryX=1;entryY=0.5;entryDx=0;entryDy=0;" edge="1" parent="1" target="wVJ0UC80bQIWRE79aEJI-8">
          <mxGeometry width="50" height="50" relative="1" as="geometry">
            <mxPoint x="750" y="170" as="sourcePoint" />
            <mxPoint x="490" y="180" as="targetPoint" />
          </mxGeometry>
        </mxCell>
        <mxCell id="h2O9KdNf0a8tzcaaWF35-15" value="" style="endArrow=classic;html=1;rounded=0;entryX=1.014;entryY=0.243;entryDx=0;entryDy=0;entryPerimeter=0;" edge="1" parent="1" target="h2O9KdNf0a8tzcaaWF35-1">
          <mxGeometry width="50" height="50" relative="1" as="geometry">
            <mxPoint x="760" y="180" as="sourcePoint" />
            <mxPoint x="490" y="350" as="targetPoint" />
          </mxGeometry>
        </mxCell>
        <mxCell id="h2O9KdNf0a8tzcaaWF35-17" value="" style="endArrow=classic;html=1;rounded=0;entryX=1.014;entryY=0.28;entryDx=0;entryDy=0;entryPerimeter=0;" edge="1" parent="1" source="wVJ0UC80bQIWRE79aEJI-13" target="h2O9KdNf0a8tzcaaWF35-2">
          <mxGeometry width="50" height="50" relative="1" as="geometry">
            <mxPoint x="440" y="320" as="sourcePoint" />
            <mxPoint x="470" y="510" as="targetPoint" />
          </mxGeometry>
        </mxCell>
        <mxCell id="h2O9KdNf0a8tzcaaWF35-18" value="" style="endArrow=classic;html=1;rounded=0;entryX=1;entryY=0.5;entryDx=0;entryDy=0;" edge="1" parent="1" target="h2O9KdNf0a8tzcaaWF35-4">
          <mxGeometry width="50" height="50" relative="1" as="geometry">
            <mxPoint x="750" y="240" as="sourcePoint" />
            <mxPoint x="490" y="380" as="targetPoint" />
          </mxGeometry>
        </mxCell>
        <mxCell id="h2O9KdNf0a8tzcaaWF35-20" value="" style="endArrow=classic;html=1;rounded=0;entryX=1;entryY=0.5;entryDx=0;entryDy=0;exitX=0;exitY=1;exitDx=0;exitDy=0;exitPerimeter=0;" edge="1" parent="1" source="wVJ0UC80bQIWRE79aEJI-3" target="h2O9KdNf0a8tzcaaWF35-19">
          <mxGeometry width="50" height="50" relative="1" as="geometry">
            <mxPoint x="490" y="480" as="sourcePoint" />
            <mxPoint x="540" y="430" as="targetPoint" />
          </mxGeometry>
        </mxCell>
        <mxCell id="h2O9KdNf0a8tzcaaWF35-21" value="" style="endArrow=classic;html=1;rounded=0;entryX=1.023;entryY=0.672;entryDx=0;entryDy=0;entryPerimeter=0;" edge="1" parent="1" source="wVJ0UC80bQIWRE79aEJI-3" target="h2O9KdNf0a8tzcaaWF35-4">
          <mxGeometry width="50" height="50" relative="1" as="geometry">
            <mxPoint x="490" y="480" as="sourcePoint" />
            <mxPoint x="460" y="590" as="targetPoint" />
          </mxGeometry>
        </mxCell>
        <mxCell id="h2O9KdNf0a8tzcaaWF35-23" value="" style="endArrow=classic;html=1;rounded=0;entryX=0.985;entryY=0.306;entryDx=0;entryDy=0;entryPerimeter=0;" edge="1" parent="1" target="h2O9KdNf0a8tzcaaWF35-22">
          <mxGeometry width="50" height="50" relative="1" as="geometry">
            <mxPoint x="760" y="530" as="sourcePoint" />
            <mxPoint x="590" y="660" as="targetPoint" />
          </mxGeometry>
        </mxCell>
        <mxCell id="h2O9KdNf0a8tzcaaWF35-26" value="" style="endArrow=classic;html=1;rounded=0;entryX=1;entryY=0.5;entryDx=0;entryDy=0;" edge="1" parent="1" target="wVJ0UC80bQIWRE79aEJI-9">
          <mxGeometry width="50" height="50" relative="1" as="geometry">
            <mxPoint x="740" y="170" as="sourcePoint" />
            <mxPoint x="600" y="400" as="targetPoint" />
          </mxGeometry>
        </mxCell>
        <mxCell id="h2O9KdNf0a8tzcaaWF35-27" value="" style="endArrow=classic;html=1;rounded=0;entryX=0.022;entryY=0.299;entryDx=0;entryDy=0;entryPerimeter=0;" edge="1" parent="1" target="h2O9KdNf0a8tzcaaWF35-24">
          <mxGeometry width="50" height="50" relative="1" as="geometry">
            <mxPoint x="80" y="220" as="sourcePoint" />
            <mxPoint x="600" y="320" as="targetPoint" />
          </mxGeometry>
        </mxCell>
        <mxCell id="h2O9KdNf0a8tzcaaWF35-28" value="" style="endArrow=classic;html=1;rounded=0;entryX=1;entryY=0.5;entryDx=0;entryDy=0;" edge="1" parent="1" target="h2O9KdNf0a8tzcaaWF35-24">
          <mxGeometry width="50" height="50" relative="1" as="geometry">
            <mxPoint x="770" y="550" as="sourcePoint" />
            <mxPoint x="590" y="500" as="targetPoint" />
          </mxGeometry>
        </mxCell>
        <mxCell id="h2O9KdNf0a8tzcaaWF35-29" value="" style="endArrow=classic;html=1;rounded=0;entryX=0.019;entryY=0.298;entryDx=0;entryDy=0;entryPerimeter=0;" edge="1" parent="1" target="h2O9KdNf0a8tzcaaWF35-22">
          <mxGeometry width="50" height="50" relative="1" as="geometry">
            <mxPoint x="90" y="220" as="sourcePoint" />
            <mxPoint x="460" y="510" as="targetPoint" />
          </mxGeometry>
        </mxCell>
        <mxCell id="h2O9KdNf0a8tzcaaWF35-32" value="" style="endArrow=classic;html=1;rounded=0;entryX=0.067;entryY=0.252;entryDx=0;entryDy=0;entryPerimeter=0;" edge="1" parent="1" target="h2O9KdNf0a8tzcaaWF35-30">
          <mxGeometry width="50" height="50" relative="1" as="geometry">
            <mxPoint x="100" y="210" as="sourcePoint" />
            <mxPoint x="460" y="540" as="targetPoint" />
          </mxGeometry>
        </mxCell>
      </root>
    </mxGraphModel>
  </diagram>
</mxfile>
